<svg width="30" height="30" viewBox="0 0 30 30" fill="none" xmlns="http://www.w3.org/2000/svg">
<g clip-path="url(#clip0_4843_1744)">
<path d="M7.5 15C11.6421 15 15 18.3579 15 22.5C15 26.6421 11.6421 30 7.5 30C3.35789 30 0 26.6421 0 22.5C0 18.3579 3.35789 15 7.5 15ZM22.5 15C26.6421 15 30 18.3579 30 22.5C30 26.6421 26.6421 30 22.5 30C18.3579 30 15 26.6421 15 22.5C15 18.3579 18.3579 15 22.5 15ZM7.5 0C11.6421 0 15 3.35789 15 7.5C15 11.6421 11.6421 15 7.5 15C3.35789 15 0 11.6421 0 7.5C0 3.35789 3.35789 0 7.5 0ZM22.5 0C26.6421 0 30 3.35789 30 7.5C30 11.6421 26.6421 15 22.5 15C18.3579 15 15 11.6421 15 7.5C15 3.35789 18.3579 0 22.5 0Z" fill="white"/>
</g>
<defs>
<clipPath id="clip0_4843_1744">
<rect width="30" height="30" fill="white"/>
</clipPath>
</defs>
</svg>
