<svg width="1846" height="278" viewBox="0 0 1846 278" fill="none" xmlns="http://www.w3.org/2000/svg">
<path d="M137.233 208.744L69.0225 277.778H0V138.067L69.0225 69.0336L138.045 0H276.09V69.0336H69.0225V208.744H137.233L207.068 138.067H276.09V208.744H137.233Z" fill="#8C9385"/>
<path d="M336.993 274.495V2.29785H460.244V38.9979H378.377V118.928H449.715V155.628H378.377V235.558H460.244V274.555H336.993V274.495Z" fill="#8C9385"/>
<path d="M494.648 274.525V2.32812H555.063C568.295 2.32812 579.612 4.26288 588.903 8.07195C598.249 11.881 605.85 17.0202 611.819 23.3687C617.787 29.7171 622.01 37.0934 624.6 45.3766C627.19 53.6598 628.428 62.2453 628.428 71.1936V81.1093C628.428 88.4856 627.809 94.7736 626.627 99.8523C625.388 104.931 623.586 109.405 621.165 113.214C616.548 120.349 609.566 126.455 600.107 131.534C609.848 135.887 616.999 142.236 621.616 150.64C626.233 159.044 628.485 170.532 628.485 185.042V200.339C628.485 224.282 622.348 242.662 610.017 255.359C597.742 268.116 578.036 274.465 551.009 274.465H494.648V274.525ZM535.976 39.0282V113.94H554.613C568.408 113.94 577.642 110.675 582.371 104.206C587.101 97.7362 589.466 88.2437 589.466 75.7282C589.466 63.2127 586.819 54.3249 581.583 48.2183C576.29 42.1117 566.775 39.0282 552.98 39.0282H535.976ZM535.976 148.342V235.528H553.825C562.214 235.528 568.745 234.379 573.475 232.081C578.205 229.784 581.808 226.579 584.229 222.528C586.65 218.478 588.171 213.58 588.677 208.018C589.24 202.395 589.466 196.288 589.466 189.637C589.466 182.987 589.071 176.759 588.227 171.68C587.439 166.602 585.806 162.248 583.385 158.681C580.682 155.114 577.022 152.514 572.462 150.821C567.845 149.189 561.764 148.342 554.219 148.342H535.976Z" fill="#8C9385"/>
<path d="M662.889 274.495V2.29785H724.937C736.311 2.29785 746.277 3.68846 754.948 6.53014C763.618 9.31136 771.445 14.3297 778.483 21.4641C785.521 28.5985 790.363 36.9422 793.066 46.4951C795.768 56.048 797.12 68.9867 797.12 85.3113C797.12 97.5245 796.388 107.863 794.868 116.267C793.404 124.672 790.194 132.592 785.352 139.968C779.665 148.917 772.12 155.809 762.661 160.827C753.202 165.785 740.759 168.264 725.388 168.264H704.33V274.555H663.002L662.889 274.495ZM704.217 38.9979V131.504H724.093C732.482 131.504 738.957 130.355 743.574 128.057C748.191 125.76 751.569 122.555 753.709 118.505C755.848 114.695 757.143 109.979 757.538 104.357C757.932 98.7337 758.157 92.5062 758.157 85.6136C758.157 79.2651 758.044 73.219 757.763 67.4752C757.481 61.7313 756.299 56.713 754.103 52.3598C751.963 48.0066 748.698 44.7417 744.362 42.4442C740.027 40.1466 733.833 38.9979 725.725 38.9979H704.217Z" fill="#8C9385"/>
<path d="M831.524 66.568C831.524 55.6245 833.551 45.8902 837.605 37.4861C841.659 29.0819 847.065 22.0684 853.821 16.4455C860.296 11.0644 867.672 7.01352 875.893 4.2323C884.113 1.45108 892.446 0 900.835 0C909.225 0 917.502 1.39062 925.778 4.2323C933.999 7.01352 941.544 11.1249 948.3 16.4455C954.775 22.0684 960.068 29.0819 964.122 37.4861C968.176 45.8902 970.203 55.564 970.203 66.568V210.285C970.203 221.772 968.176 231.567 964.122 239.729C960.068 247.892 954.775 254.663 948.3 259.984C941.544 265.607 934.055 269.779 925.778 272.62C917.558 275.402 909.225 276.853 900.835 276.853C892.446 276.853 884.169 275.462 875.893 272.62C867.672 269.839 860.296 265.607 853.821 259.984C847.065 254.603 841.659 247.892 837.605 239.729C833.551 231.567 831.524 221.772 831.524 210.285V66.568ZM872.852 210.285C872.852 219.717 875.611 226.67 881.185 231.144C886.703 235.618 893.291 237.855 900.835 237.855C908.38 237.855 914.968 235.618 920.486 231.144C926.004 226.67 928.819 219.717 928.819 210.285V66.568C928.819 57.136 926.06 50.1829 920.486 45.7088C914.968 41.2347 908.38 38.9976 900.835 38.9976C893.291 38.9976 886.703 41.2347 881.185 45.7088C875.667 50.1829 872.852 57.136 872.852 66.568V210.285Z" fill="#8C9385"/>
<path d="M1004.61 274.525V2.32812H1136.36V274.525H1095.03V36.7306H1045.99V274.525H1004.66H1004.61Z" fill="#8C9385"/>
<path d="M1170.77 66.568C1170.77 55.6245 1172.79 45.8902 1176.85 37.4861C1180.9 29.0819 1186.31 22.0684 1193.06 16.4455C1199.54 11.0644 1206.91 7.01352 1215.13 4.2323C1223.35 1.45108 1231.69 0 1240.08 0C1248.47 0 1256.74 1.39062 1265.02 4.2323C1273.24 7.01352 1280.73 11.1249 1287.54 16.4455C1294.02 22.0684 1299.31 29.0819 1303.36 37.4861C1307.42 45.8902 1309.44 55.564 1309.44 66.568V210.285C1309.44 221.772 1307.42 231.567 1303.36 239.729C1299.31 247.892 1294.02 254.663 1287.54 259.984C1280.78 265.607 1273.3 269.779 1265.02 272.62C1256.8 275.402 1248.47 276.853 1240.08 276.853C1231.69 276.853 1223.41 275.462 1215.13 272.62C1206.91 269.839 1199.54 265.607 1193.06 259.984C1186.31 254.603 1180.9 247.892 1176.85 239.729C1172.79 231.567 1170.77 221.772 1170.77 210.285V66.568ZM1212.09 210.285C1212.09 219.717 1214.85 226.67 1220.43 231.144C1225.94 235.618 1232.53 237.855 1240.08 237.855C1247.62 237.855 1254.21 235.618 1259.73 231.144C1265.24 226.67 1268.06 219.717 1268.06 210.285V66.568C1268.06 57.136 1265.3 50.1829 1259.73 45.7088C1254.21 41.2347 1247.62 38.9976 1240.08 38.9976C1232.53 38.9976 1225.94 41.2347 1220.43 45.7088C1214.91 50.1829 1212.09 57.136 1212.09 66.568V210.285Z" fill="#8C9385"/>
<path d="M1423.63 36.7306V115.875C1423.63 119.926 1423.52 126.879 1423.24 136.734C1422.96 146.528 1422.28 157.291 1421.21 169.02C1420.14 180.75 1418.51 192.358 1416.37 203.785C1414.23 215.273 1411.24 224.826 1407.47 232.444C1401 245.443 1392.72 255.722 1382.75 263.219C1372.73 270.716 1360.57 274.525 1346.27 274.525H1343.85V235.528C1351.96 235.044 1358.32 232.746 1362.88 228.635C1367.5 224.584 1371.27 219.445 1374.25 213.338C1376.67 207.957 1378.64 201.488 1380.11 193.87C1381.57 186.252 1382.75 178.089 1383.54 169.383C1384.33 160.737 1384.89 151.789 1385.18 142.599C1385.46 133.408 1385.57 124.641 1385.57 116.237V2.32812H1505.56V274.525H1464.23V36.7306H1423.69H1423.63Z" fill="#8C9385"/>
<path d="M1636.41 274.525V97.9176H1635.62L1581.29 274.525H1539.96V2.32812H1581.29V179.359H1582.08L1636.41 2.32812H1677.74V274.525H1636.41Z" fill="#8C9385"/>
<path d="M1845.92 196.953V213.761C1845.92 222.165 1844.23 230.146 1840.85 237.643C1837.48 245.141 1832.8 251.852 1826.89 257.717C1820.92 263.581 1814 268.237 1806 271.683C1798.01 275.129 1789.45 276.822 1780.27 276.822C1772.44 276.822 1764.45 275.795 1756.34 273.739C1748.23 271.683 1740.91 268.116 1734.44 263.037C1727.96 257.958 1722.61 251.368 1718.45 243.327C1714.28 235.285 1712.14 225.067 1712.14 212.552V62.7287C1712.14 53.8409 1713.77 45.5577 1716.98 37.8791C1720.25 30.261 1724.81 23.6102 1730.78 17.9873C1736.75 12.3644 1743.84 8.01118 1752.06 4.80673C1760.28 1.60227 1769.4 0.0302734 1779.43 0.0302734C1798.91 0.0302734 1814.67 6.01596 1826.83 17.9873C1832.75 23.8521 1837.42 30.8051 1840.8 38.8465C1844.18 46.8878 1845.87 55.5943 1845.87 65.0262V80.323H1804.54V67.3238C1804.54 59.7056 1802.23 53.0549 1797.67 47.432C1793.05 41.8091 1786.86 39.0279 1779.03 39.0279C1768.73 39.0279 1761.92 42.0509 1758.54 48.0366C1755.16 54.0223 1753.47 61.5799 1753.47 70.7701V209.952C1753.47 217.873 1755.27 224.463 1758.93 229.844C1762.59 235.225 1769.12 237.885 1778.58 237.885C1781.28 237.885 1784.21 237.462 1787.31 236.555C1790.41 235.648 1793.33 234.197 1796.04 232.141C1798.46 230.086 1800.48 227.305 1802.12 223.737C1803.75 220.17 1804.54 215.696 1804.54 210.375V197.013H1845.87L1845.92 196.953Z" fill="#8C9385"/>
</svg>
