<svg width="231" height="34" viewBox="0 0 231 34" fill="none" xmlns="http://www.w3.org/2000/svg">
<path d="M16.7973 25.5503L8.44835 34H0V16.8994L8.44835 8.4497L16.8967 0H33.7934V8.4497H8.44835V25.5503H16.7973L25.3451 16.8994H33.7934V25.5503H16.7973Z" fill="white"/>
<path d="M45.4033 33.5981V0.28125H60.4892V4.77333H50.4687V14.5567H59.2005V19.0488H50.4687V28.8322H60.4892V33.6055H45.4033V33.5981Z" fill="white"/>
<path d="M64.7002 33.6021V0.285156H72.095C73.7145 0.285156 75.0998 0.52197 76.2369 0.9882C77.3809 1.45443 78.3113 2.08347 79.0418 2.86052C79.7723 3.63757 80.2892 4.54043 80.6062 5.55429C80.9232 6.56815 81.0749 7.61902 81.0749 8.71429V9.92797C81.0749 10.8308 80.999 11.6005 80.8543 12.2221C80.7027 12.8438 80.4822 13.3914 80.1858 13.8576C79.6207 14.7309 78.7661 15.4783 77.6083 16.1C78.8006 16.6328 79.6758 17.4098 80.241 18.4385C80.8061 19.4672 81.0818 20.8733 81.0818 22.6494V24.5217C81.0818 27.4523 80.3306 29.702 78.8213 31.2561C77.3189 32.8176 74.9068 33.5947 71.5988 33.5947H64.7002V33.6021ZM69.7587 4.77724V13.9464H72.0398C73.7283 13.9464 74.8586 13.5468 75.4375 12.7549C76.0164 11.9631 76.3058 10.8012 76.3058 9.26933C76.3058 7.73743 75.9819 6.64956 75.341 5.90211C74.6931 5.15467 73.5285 4.77724 71.84 4.77724H69.7587ZM69.7587 18.1573V28.8288H71.9434C72.9702 28.8288 73.7697 28.6882 74.3486 28.4069C74.9275 28.1257 75.3685 27.7335 75.6649 27.2377C75.9612 26.7418 76.1473 26.1424 76.2093 25.4616C76.2782 24.7733 76.3058 24.0259 76.3058 23.2118C76.3058 22.3978 76.2576 21.6355 76.1542 21.0139C76.0577 20.3922 75.8578 19.8594 75.5615 19.4228C75.2307 18.9861 74.7827 18.6679 74.2245 18.4607C73.6594 18.2609 72.9151 18.1573 71.9916 18.1573H69.7587Z" fill="white"/>
<path d="M85.293 33.5981V0.28125H92.8876C94.2797 0.28125 95.4996 0.45146 96.5609 0.799282C97.6222 1.1397 98.5801 1.75394 99.4416 2.6272C100.303 3.50045 100.896 4.52172 101.227 5.69099C101.557 6.86026 101.723 8.44396 101.723 10.4421C101.723 11.937 101.633 13.2025 101.447 14.2311C101.268 15.2598 100.875 16.2293 100.282 17.1321C99.5863 18.2274 98.6628 19.071 97.505 19.6853C96.3472 20.2921 94.8242 20.5955 92.9427 20.5955H90.3653V33.6055H85.3068L85.293 33.5981ZM90.3515 4.77333V16.096H92.7842C93.8111 16.096 94.6036 15.9554 95.1688 15.6742C95.7339 15.393 96.1474 15.0008 96.4093 14.5049C96.6712 14.0387 96.8297 13.4615 96.8779 12.7732C96.9261 12.085 96.9537 11.3227 96.9537 10.4791C96.9537 9.70204 96.9399 8.962 96.9055 8.25895C96.871 7.55591 96.7263 6.94167 96.4575 6.40884C96.1956 5.876 95.7959 5.47638 95.2652 5.19516C94.7346 4.91394 93.9765 4.77333 92.9841 4.77333H90.3515Z" fill="white"/>
<path d="M105.934 8.14792C105.934 6.80843 106.182 5.61696 106.678 4.58829C107.174 3.55963 107.836 2.70117 108.663 2.01293C109.455 1.35429 110.358 0.858455 111.364 0.518033C112.37 0.177612 113.39 0 114.417 0C115.444 0 116.457 0.170211 117.47 0.518033C118.476 0.858455 119.4 1.36169 120.227 2.01293C121.02 2.70117 121.667 3.55963 122.164 4.58829C122.66 5.61696 122.908 6.80103 122.908 8.14792V25.7388C122.908 27.1449 122.66 28.3438 122.164 29.3429C121.667 30.3419 121.02 31.1708 120.227 31.822C119.4 32.5103 118.483 33.0209 117.47 33.3687C116.464 33.7091 115.444 33.8867 114.417 33.8867C113.39 33.8867 112.377 33.7165 111.364 33.3687C110.358 33.0283 109.455 32.5103 108.663 31.822C107.836 31.1634 107.174 30.3419 106.678 29.3429C106.182 28.3438 105.934 27.1449 105.934 25.7388V8.14792ZM110.992 25.7388C110.992 26.8933 111.33 27.7444 112.012 28.292C112.687 28.8396 113.494 29.1134 114.417 29.1134C115.341 29.1134 116.147 28.8396 116.822 28.292C117.498 27.7444 117.842 26.8933 117.842 25.7388V8.14792C117.842 6.99344 117.505 6.14239 116.822 5.59476C116.147 5.04712 115.341 4.7733 114.417 4.7733C113.494 4.7733 112.687 5.04712 112.012 5.59476C111.337 6.14239 110.992 6.99344 110.992 8.14792V25.7388Z" fill="white"/>
<path d="M127.119 33.6021V0.285156H143.246V33.6021H138.187V4.49602H132.185V33.6021H127.126H127.119Z" fill="white"/>
<path d="M147.457 8.14792C147.457 6.80843 147.705 5.61696 148.201 4.58829C148.698 3.55963 149.359 2.70117 150.186 2.01293C150.979 1.35429 151.881 0.858455 152.888 0.518033C153.894 0.177612 154.914 0 155.941 0C156.968 0 157.981 0.170211 158.994 0.518033C160 0.858455 160.916 1.36169 161.75 2.01293C162.543 2.70117 163.191 3.55963 163.687 4.58829C164.183 5.61696 164.431 6.80103 164.431 8.14792V25.7388C164.431 27.1449 164.183 28.3438 163.687 29.3429C163.191 30.3419 162.543 31.1708 161.75 31.822C160.923 32.5103 160.007 33.0209 158.994 33.3687C157.988 33.7091 156.968 33.8867 155.941 33.8867C154.914 33.8867 153.901 33.7165 152.888 33.3687C151.881 33.0283 150.979 32.5103 150.186 31.822C149.359 31.1634 148.698 30.3419 148.201 29.3429C147.705 28.3438 147.457 27.1449 147.457 25.7388V8.14792ZM152.516 25.7388C152.516 26.8933 152.853 27.7444 153.535 28.292C154.211 28.8396 155.017 29.1134 155.941 29.1134C156.864 29.1134 157.671 28.8396 158.346 28.292C159.021 27.7444 159.366 26.8933 159.366 25.7388V8.14792C159.366 6.99344 159.028 6.14239 158.346 5.59476C157.671 5.04712 156.864 4.7733 155.941 4.7733C155.017 4.7733 154.211 5.04712 153.535 5.59476C152.86 6.14239 152.516 6.99344 152.516 8.14792V25.7388Z" fill="white"/>
<path d="M178.408 4.49602V14.1832C178.408 14.6791 178.394 15.5301 178.36 16.7364C178.325 17.9353 178.243 19.2526 178.112 20.6882C177.981 22.1239 177.781 23.5448 177.519 24.9435C177.257 26.3496 176.892 27.5189 176.43 28.4513C175.638 30.0424 174.625 31.3005 173.405 32.2182C172.178 33.1358 170.689 33.6021 168.939 33.6021H168.643V28.8288C169.635 28.7696 170.414 28.4883 170.972 27.9851C171.537 27.4893 171.999 26.8602 172.364 26.1128C172.66 25.4542 172.902 24.6623 173.081 23.7298C173.26 22.7974 173.405 21.7983 173.501 20.7327C173.598 19.6744 173.667 18.5791 173.701 17.4542C173.736 16.3294 173.749 15.2563 173.749 14.2276V0.285156H188.436V33.6021H183.377V4.49602H178.415H178.408Z" fill="white"/>
<path d="M204.452 33.6021V11.9853H204.355L197.705 33.6021H192.646V0.285156H197.705V21.9537H197.801L204.452 0.285156H209.51V33.6021H204.452Z" fill="white"/>
<path d="M230.096 24.1072V26.1646C230.096 27.1932 229.89 28.1701 229.476 29.0878C229.063 30.0054 228.491 30.8269 227.767 31.5447C227.036 32.2626 226.189 32.8324 225.21 33.2542C224.231 33.676 223.184 33.8833 222.061 33.8833C221.103 33.8833 220.124 33.7575 219.132 33.5058C218.139 33.2542 217.243 32.8176 216.451 32.1959C215.658 31.5743 215.004 30.7677 214.494 29.7834C213.984 28.7991 213.722 27.5485 213.722 26.0166V7.67819C213.722 6.59032 213.922 5.57646 214.314 4.6366C214.714 3.70414 215.272 2.89009 216.003 2.20185C216.733 1.5136 217.602 0.980769 218.608 0.588544C219.614 0.196319 220.731 0.00390625 221.957 0.00390625C224.342 0.00390625 226.271 0.736554 227.76 2.20185C228.484 2.91969 229.056 3.77075 229.469 4.75501C229.883 5.73927 230.089 6.80494 230.089 7.95941V9.83173H225.031V8.24063C225.031 7.30817 224.748 6.49412 224.19 5.80587C223.625 5.11763 222.867 4.77721 221.909 4.77721C220.648 4.77721 219.814 5.14723 219.4 5.87988C218.987 6.61253 218.78 7.53759 218.78 8.66246V25.6983C218.78 26.6678 219.001 27.4745 219.449 28.1331C219.897 28.7917 220.696 29.1174 221.854 29.1174C222.185 29.1174 222.543 29.0656 222.922 28.9545C223.301 28.8435 223.659 28.6659 223.99 28.4143C224.287 28.1627 224.535 27.8223 224.735 27.3856C224.934 26.949 225.031 26.4014 225.031 25.7501V24.1146H230.089L230.096 24.1072Z" fill="white"/>
</svg>
