<svg width="70" height="24" viewBox="0 0 70 24" fill="none" xmlns="http://www.w3.org/2000/svg">
<g clip-path="url(#clip0_4763_62)">
<path fill="#00AAFF" fill-rule="evenodd" clip-rule="evenodd" d="M19.9146 3.36008H3.5419L4.7232 0H21.0959L19.9146 3.36008ZM19.3235 5.03997H2.95053L1.76924 8.40004H18.1422L19.3235 5.03997ZM17.554 10.0799H1.18129L0 13.44H16.3727L17.554 10.0799Z"/>
<path fill="#0A2896" fill-rule="evenodd" clip-rule="evenodd" d="M60.0419 20.7777H63.0191C64.1484 20.7777 64.8327 20.5118 65.3119 19.9141C65.5514 19.6149 65.8937 19.0836 65.8937 18.0871C65.8937 17.0905 65.5514 16.3928 64.8671 15.8947C64.4565 15.5956 63.9087 15.4297 62.9848 15.4297H60.0419V20.7777ZM56.1065 23.9998V4.7998H68.9734L67.8442 8.02219H60.0419V12.2738H63.2244C65.791 12.2738 67.1255 12.8719 68.0495 13.6358C68.7682 14.2339 70 15.5625 70 18.1867C70 20.7777 68.7339 22.2061 67.6729 22.9367C66.4411 23.7673 65.1409 23.9998 62.5059 23.9998H56.1065ZM44.7112 23.9998V8.02219H38.9964V4.7998H54.8746L53.7453 8.02219H48.6807V23.9998H44.7112ZM28.8671 12.4734H31.0915C31.7756 12.4734 32.1178 12.4734 32.4603 12.3735C33.3843 12.1079 33.9657 11.3107 33.9657 10.2145C33.9657 8.9188 33.35 8.35438 32.4603 8.08853C32.0838 7.9889 31.7073 7.9556 30.9545 7.9556H28.8671V12.4734ZM28.9014 15.7951V20.8441H31.639C32.4603 20.8441 33.2131 20.7777 33.7605 20.2793C34.308 19.7812 34.5476 19.1502 34.5476 18.3195C34.5476 17.6885 34.3766 17.0905 34.0345 16.6587C33.4526 15.961 32.7339 15.7951 31.5021 15.7951H28.9014ZM35.2322 13.7688V13.8351C35.985 14.1009 36.7034 14.566 37.0799 14.8649C38.2434 15.7951 38.7569 17.0242 38.7569 18.6184C38.7569 21.2428 37.3194 23.1362 34.9584 23.7339C34.2397 23.9332 33.4869 23.9998 32.0838 23.9998H24.9316V4.7998H31.2625C32.5629 4.7998 33.4526 4.8664 34.2397 5.06566C36.5324 5.66368 38.0382 7.19162 38.0382 9.61643C38.0382 10.9122 37.559 12.0083 36.772 12.7389C36.4298 13.0711 35.9507 13.4699 35.2322 13.7688Z"/>
</g>
<defs>
<clipPath id="clip0_4763_62">
<rect width="70" height="24"/>
</clipPath>
</defs>
</svg>
